<svg width="23" height="25" viewBox="0 0 23 25" fill="none" xmlns="http://www.w3.org/2000/svg">
<g clip-path="url(#clip0_175_1694)">
<path d="M16.5186 16.0951L13.066 12.636L1.64111 24.2387C1.75032 24.1974 1.85619 24.1478 1.95776 24.0902L16.5186 16.0951Z" fill="#0328EE"/>
<path d="M0.00850522 1.43999C0.0144238 2.85531 0.107148 21.7236 0.116026 22.9133C0.0902982 23.161 0.125802 23.4112 0.219399 23.6418C0.312996 23.8724 0.4618 24.0764 0.652648 24.2356L12.5668 12.137L0.600367 0.143433C0.393848 0.285424 0.229684 0.481073 0.125431 0.70945C0.0211803 0.937827 -0.0192362 1.19035 0.00850522 1.43999Z" fill="#0328EE"/>
<path d="M17.1586 8.48145L13.5612 12.1345L17.1626 15.7421L22.1126 13.0234C22.7044 12.6957 23.3338 11.8604 22.1126 11.1923L17.1586 8.48145Z" fill="#0328EE"/>
<path d="M1.95772 0.159347C1.7996 0.0753001 1.62738 0.0212781 1.44971 0L13.0631 11.6343L16.5156 8.12869L1.95772 0.159347Z" fill="#0328EE"/>
</g>
<defs>
<clipPath id="clip0_175_1694">
<rect width="23" height="25" fill="white"/>
</clipPath>
</defs>
</svg>
