<svg width="22" height="19" viewBox="0 0 22 19" fill="none" xmlns="http://www.w3.org/2000/svg">
<g clip-path="url(#clip0_1_106884)">
<path opacity="0.4" d="M21.2061 13.6257C21.2061 16.5634 18.8313 18.9429 15.8734 18.9535H15.8628H5.35671C2.40948 18.9535 0.00292969 16.5844 0.00292969 13.6467V13.6362C0.00292969 13.6362 0.00929061 8.97595 0.0177718 6.63214C0.0188321 6.19202 0.527706 5.94564 0.874376 6.21939C3.3933 8.20416 7.8979 11.8231 7.95409 11.8705C8.7068 12.4696 9.66093 12.8076 10.6363 12.8076C11.6117 12.8076 12.5658 12.4696 13.3185 11.8589C13.3746 11.822 17.7785 8.31155 20.3356 6.29415C20.6834 6.01934 21.1944 6.26572 21.1954 6.70479C21.2061 9.0307 21.2061 13.6257 21.2061 13.6257Z" fill="white"/>
<path d="M20.6494 2.81552C19.7314 1.09715 17.9248 0 15.936 0H5.35563C3.36678 0 1.56028 1.09715 0.642183 2.81552C0.436513 3.19985 0.534047 3.67892 0.876477 3.95058L8.74813 10.2039C9.2994 10.6462 9.96728 10.8662 10.6352 10.8662C10.6394 10.8662 10.6426 10.8662 10.6458 10.8662C10.649 10.8662 10.6532 10.8662 10.6564 10.8662C11.3243 10.8662 11.9922 10.6462 12.5435 10.2039L20.4151 3.95058C20.7575 3.67892 20.8551 3.19985 20.6494 2.81552Z" fill="white"/>
</g>
<defs>
<clipPath id="clip0_1_106884">
<rect width="22" height="19" fill="white" transform="translate(0.00292969)"/>
</clipPath>
</defs>
</svg>
