<svg width="43" height="42" viewBox="0 0 43 42" fill="none" xmlns="http://www.w3.org/2000/svg">
<path opacity="0.4" d="M2.454 9.1416H26.8178C27.9449 9.1416 28.8597 10.0564 28.8597 11.1835C28.8597 12.3106 27.9449 13.2254 26.8178 13.2254H2.454C1.32688 13.2254 0.412109 12.3106 0.412109 11.1835C0.412109 10.0564 1.32688 9.1416 2.454 9.1416Z" fill="white"/>
<mask id="mask0_1_106320" style="mask-type:alpha" maskUnits="userSpaceOnUse" x="24" y="0" width="18" height="22">
<path fill-rule="evenodd" clip-rule="evenodd" d="M24 21.9889V0H41.5697V21.9889H24Z" fill="white"/>
</mask>
<g mask="url(#mask0_1_106320)">
<path d="M25.379 0.1875C25.6364 0.1875 25.8901 0.259206 26.1144 0.398944L40.706 9.59408C41.1068 9.84778 41.3514 10.2873 41.3514 10.7616C41.3514 11.236 41.1068 11.6755 40.706 11.9292L26.1144 21.1243C25.6897 21.3909 25.1528 21.4075 24.7134 21.1629C24.2721 20.9202 24 20.4587 24 19.9568V1.5665C24 1.06454 24.2721 0.603036 24.7134 0.360333C24.9211 0.244497 25.151 0.1875 25.379 0.1875Z" fill="white"/>
</g>
<path opacity="0.4" d="M39.892 33.2624H15.5282C14.4011 33.2624 13.4863 32.3477 13.4863 31.2205C13.4863 30.0934 14.4011 29.1787 15.5282 29.1787H39.892C41.0191 29.1787 41.9339 30.0934 41.9339 31.2205C41.9339 32.3477 41.0191 33.2624 39.892 33.2624Z" fill="white"/>
<mask id="mask1_1_106320" style="mask-type:alpha" maskUnits="userSpaceOnUse" x="0" y="19" width="18" height="23">
<path fill-rule="evenodd" clip-rule="evenodd" d="M17.5697 19.9941V41.9829H0V19.9941H17.5697Z" fill="white"/>
</mask>
<g mask="url(#mask1_1_106320)">
<path d="M16.1906 41.7948C15.9332 41.7948 15.6795 41.7231 15.4552 41.5834L0.863633 32.3882C0.462805 32.1345 0.218262 31.6951 0.218262 31.2207C0.218262 30.7463 0.462805 30.3069 0.863633 30.0532L15.4552 20.858C15.8799 20.5914 16.4168 20.5749 16.8562 20.8194C17.2975 21.0621 17.5696 21.5236 17.5696 22.0256V40.4158C17.5696 40.9178 17.2975 41.3793 16.8562 41.622C16.6485 41.7378 16.4186 41.7948 16.1906 41.7948Z" fill="white"/>
</g>
</svg>
