<svg width="52" height="53" viewBox="0 0 52 53" fill="none" xmlns="http://www.w3.org/2000/svg">
<g clip-path="url(#clip0_1_97266)">
<path d="M51.4875 26.7281C51.4875 40.9574 39.973 52.4719 25.7437 52.4719C11.5145 52.4719 0 40.9574 0 26.7281C0 12.4989 11.5145 0.984375 25.7437 0.984375C28.7862 0.984375 31.735 1.49925 34.4498 2.4822C44.3728 6.03951 51.4875 15.5413 51.4875 26.7281Z" fill="white" fill-opacity="0.4"/>
<path d="M50.9726 21.5327C49.1472 12.6863 42.7815 5.47799 34.4498 2.48236C34.403 2.48236 34.3562 2.43555 34.3562 2.43555L34.4498 7.39707C34.4498 8.66085 33.7009 9.83102 32.5308 10.3459C29.9564 11.4693 27.382 10.8608 26.3055 13.8096C25.4161 16.0095 27.7565 22.0476 30.6117 22.0476C34.2158 22.0476 35.9477 14.7926 37.0242 14.7926C37.7263 14.7926 38.8029 16.9925 40.0667 18.6307C40.9092 19.7541 42.2198 20.3626 43.624 20.3626H46.0111L50.9726 21.5327Z" fill="white"/>
<path d="M30.3308 32.3452C29.0202 34.1706 35.9008 39.7406 38.1943 38.6641C42.0793 36.8386 44.6068 33.0473 44.6068 31.6431C44.6068 30.2388 42.7814 27.5241 36.5561 31.7367C34.8242 33.0004 31.6882 30.4729 30.3308 32.3452Z" fill="white"/>
<path d="M19.8929 27.2425C21.2503 25.8851 21.6715 23.7788 20.9694 22.5618C18.7227 18.4896 13.3867 20.6428 12.8719 24.9022C12.591 27.4766 11.0464 30.0977 9.73581 31.4551C8.42522 32.7657 5.85085 32.0636 5.14875 30.1445C4.35303 27.9914 7.11463 27.1957 6.69337 24.4341C6.59976 23.6852 5.80404 23.3107 4.8211 23.1703L0.187227 23.3576C0.0936134 24.4341 0 25.5575 0 26.7276C0 39.0378 8.61245 49.3353 20.1737 51.8629V47.2758C20.1737 47.2758 20.1737 47.2758 19.0036 46.1057C17.8334 44.9355 20.2205 42.9696 20.8758 40.4888C22.7013 33.4678 16.6164 33.187 16.4292 31.6424C16.242 29.9105 18.5355 28.5999 19.8929 27.2425Z" fill="white"/>
</g>
<defs>
<clipPath id="clip0_1_97266">
<rect width="52" height="52" fill="white" transform="translate(0 0.984375)"/>
</clipPath>
</defs>
</svg>
