<svg width="36" height="37" viewBox="0 0 36 37" fill="none" xmlns="http://www.w3.org/2000/svg">
<g clip-path="url(#clip0_1_97126)">
<path d="M17.5917 36.1136C27.3073 36.1136 35.1834 28.2375 35.1834 18.5219C35.1834 8.80625 27.3073 0.930176 17.5917 0.930176C7.87607 0.930176 0 8.80625 0 18.5219C0 28.2375 7.87607 36.1136 17.5917 36.1136Z" fill="white" fill-opacity="0.4"/>
<path d="M21.0348 7.65774C21.0348 7.21229 20.4962 6.98921 20.1813 7.30419L8.71102 18.7744C8.59059 18.895 8.50859 19.0485 8.47539 19.2157C8.44218 19.3828 8.45926 19.5561 8.52445 19.7135C8.58965 19.871 8.70004 20.0056 8.84169 20.1003C8.98334 20.1951 9.14989 20.2457 9.32031 20.2459H13.6487C13.9248 20.2459 14.1487 20.4698 14.1487 20.7459V29.3853C14.1487 29.8307 14.6872 30.0538 15.0022 29.7388L26.4725 18.2686C26.5929 18.148 26.6749 17.9944 26.7081 17.8273C26.7413 17.6601 26.7242 17.4869 26.659 17.3294C26.5938 17.172 26.4834 17.0374 26.3418 16.9426C26.2001 16.8479 26.0336 16.7972 25.8632 16.7971H21.5348C21.2587 16.7971 21.0348 16.5732 21.0348 16.2971V7.65774Z" fill="white"/>
</g>
<defs>
<clipPath id="clip0_1_97126">
<rect width="36" height="37" fill="white"/>
</clipPath>
</defs>
</svg>
