<svg width="42" height="42" viewBox="0 0 42 42" fill="none" xmlns="http://www.w3.org/2000/svg">
<g opacity="0.84992" clip-path="url(#clip0_1_96929)">
<path opacity="0.4" d="M30.7177 0H11.3708C4.32049 0 0.325928 3.99456 0.325928 11.0448V30.3733C0.325928 37.4237 4.32049 41.4183 11.3708 41.4183H30.7177C37.768 41.4183 41.7441 37.4237 41.7441 30.3733V11.0448C41.7441 3.99456 37.768 0 30.7177 0Z" fill="white"/>
<path d="M11.4439 15.2607C10.5051 15.2607 9.73193 16.0338 9.73193 16.991V31.2205C9.73193 32.1594 10.5051 32.9325 11.4439 32.9325C12.4011 32.9325 13.1743 32.1594 13.1743 31.2205V16.991C13.1743 16.0338 12.4011 15.2607 11.4439 15.2607Z" fill="white"/>
<path d="M21.1083 8.46777C20.1695 8.46777 19.3964 9.24092 19.3964 10.1982V31.2201C19.3964 32.159 20.1695 32.9322 21.1083 32.9322C22.0655 32.9322 22.8386 32.159 22.8386 31.2201V10.1982C22.8386 9.24092 22.0655 8.46777 21.1083 8.46777Z" fill="white"/>
<path d="M30.6437 22.7705C29.6865 22.7705 28.9133 23.5437 28.9133 24.5009V31.2198C28.9133 32.1587 29.6865 32.9318 30.6253 32.9318C31.5825 32.9318 32.3557 32.1587 32.3557 31.2198V24.5009C32.3557 23.5437 31.5825 22.7705 30.6437 22.7705Z" fill="white"/>
</g>
<defs>
<clipPath id="clip0_1_96929">
<rect width="42" height="42" fill="white"/>
</clipPath>
</defs>
</svg>
