<svg width="46" height="47" viewBox="0 0 46 47" fill="none" xmlns="http://www.w3.org/2000/svg">
<g clip-path="url(#clip0_1_97277)">
<path opacity="0.4" d="M45.1314 23.7276C45.1314 36.0923 35.1084 46.1153 22.7437 46.1153C10.3789 46.1153 0.355957 36.0923 0.355957 23.7276C0.355957 11.3651 10.3789 1.33984 22.7437 1.33984C35.1084 1.33984 45.1314 11.3651 45.1314 23.7276Z" fill="white"/>
<path d="M31.3848 16.3517L27.758 27.8142C27.6237 28.2843 27.2431 28.6649 26.7729 28.8015L15.3552 32.3813C14.594 32.6298 13.8552 31.8887 14.1015 31.1276L17.6835 19.6427C17.8179 19.1725 18.1984 18.8143 18.6686 18.6576L30.1311 15.0756C30.9147 14.8293 31.6311 15.5681 31.3848 16.3517Z" fill="white"/>
</g>
<defs>
<clipPath id="clip0_1_97277">
<rect width="46" height="46" fill="white" transform="translate(0 0.984375)"/>
</clipPath>
</defs>
</svg>
