<svg width="58" height="47" viewBox="0 0 58 47" fill="none" xmlns="http://www.w3.org/2000/svg">
<g opacity="0.84992">
<path d="M43.6973 9.50315C41.2006 6.49101 37.8315 4.31968 34.0499 3.28553C30.2684 2.25139 26.2585 2.40483 22.5677 3.72491C18.8769 5.04499 15.685 7.46739 13.4278 10.6614C11.1705 13.8556 9.95788 17.6656 9.95532 21.5716V26.7537" stroke="white" stroke-opacity="0.4" stroke-width="4.92496" stroke-linecap="round" stroke-linejoin="round"/>
<path d="M16.0117 37.7569C18.6299 40.5202 22.0206 42.437 25.7448 43.2591C29.4691 44.0812 33.3554 43.7708 36.9005 42.3681C40.4455 40.9652 43.4862 38.5347 45.6288 35.3912C47.7713 32.2476 48.9172 28.5358 48.9178 24.7362V21.2861" stroke="white" stroke-opacity="0.4" stroke-width="4.92496" stroke-linecap="round" stroke-linejoin="round"/>
<path d="M18.5804 18.2663C18.5695 18.4741 18.5006 18.6759 18.3778 18.8511L10.3067 30.2399C10.084 30.5528 9.71751 30.7316 9.33309 30.7115C8.94867 30.6914 8.60295 30.4754 8.41435 30.1411L1.58257 17.9743C1.38457 17.6202 1.39395 17.1862 1.61079 16.8418C1.82621 16.4959 2.21175 16.2957 2.61852 16.317L17.5215 17.0949C17.9283 17.1162 18.2907 17.3553 18.4686 17.7218C18.5537 17.8944 18.5901 18.0823 18.5804 18.2663Z" fill="white"/>
<path d="M39.8516 28.6361C39.8588 28.4309 39.9233 28.2306 40.0414 28.0557L47.8076 16.6809C48.0219 16.3684 48.3804 16.1857 48.7599 16.1989C49.1396 16.2121 49.4844 16.4192 49.6762 16.7458L56.6269 28.6326C56.8284 28.9786 56.8267 29.407 56.6186 29.7505C56.4121 30.0954 56.0352 30.2995 55.6335 30.2855L40.9167 29.7736C40.515 29.7597 40.1532 29.5299 39.9714 29.1714C39.8845 29.0026 39.8452 28.8178 39.8516 28.6361Z" fill="white"/>
</g>
</svg>
