<svg width="47" height="36" viewBox="0 0 47 36" fill="none" xmlns="http://www.w3.org/2000/svg">
<g clip-path="url(#clip0_1_97253)">
<path d="M23.2334 24.1172C15.9127 24.1172 9.73584 25.3134 9.73584 29.9303C9.73584 34.549 15.9526 35.7032 23.2334 35.7032C30.5541 35.7032 36.731 34.507 36.731 29.8901C36.731 25.2714 30.5142 24.1172 23.2334 24.1172Z" fill="white"/>
<path opacity="0.4" d="M23.2334 19.7186C28.1905 19.7186 32.1653 15.7209 32.1653 10.7353C32.1653 5.74773 28.1905 1.75195 23.2334 1.75195C18.2763 1.75195 14.3015 5.74773 14.3015 10.7353C14.3015 15.7209 18.2763 19.7186 23.2334 19.7186Z" fill="white"/>
<path opacity="0.4" d="M42.6255 12.8277C43.908 7.78278 40.1479 3.25195 35.3599 3.25195C34.8393 3.25195 34.3415 3.30928 33.8551 3.40673C33.7905 3.42202 33.7183 3.45451 33.6803 3.51184C33.6366 3.58445 33.6689 3.68191 33.7164 3.74497C35.1547 5.77439 35.9812 8.24523 35.9812 10.8976C35.9812 13.4392 35.2231 15.8087 33.8931 17.7751C33.7563 17.9777 33.8779 18.2509 34.1192 18.293C34.4536 18.3522 34.7956 18.3828 35.1452 18.3923C38.6317 18.4841 41.761 16.2272 42.6255 12.8277Z" fill="white"/>
<path d="M46.2782 24.7058C45.6398 23.3375 44.0989 22.3993 41.7562 21.9387C40.6504 21.6674 37.6579 21.2852 34.8744 21.3368C34.8326 21.3425 34.8098 21.3712 34.806 21.3903C34.8003 21.417 34.8117 21.4629 34.8668 21.4916C36.1531 22.1317 41.1254 24.916 40.5003 30.7883C40.4737 31.0424 40.677 31.2622 40.9297 31.224C42.1533 31.0482 45.3016 30.3679 46.2782 28.2486C46.8178 27.1288 46.8178 25.8275 46.2782 24.7058Z" fill="white"/>
<path opacity="0.4" d="M12.8269 3.40771C12.3424 3.30834 11.8427 3.25293 11.3221 3.25293C6.53416 3.25293 2.77406 7.78376 4.05846 12.8287C4.92106 16.2282 8.05036 18.485 11.5368 18.3933C11.8864 18.3838 12.2303 18.3513 12.5628 18.294C12.8041 18.2519 12.9257 17.9786 12.7889 17.7761C11.4589 15.8078 10.7008 13.4402 10.7008 10.8986C10.7008 8.24429 11.5292 5.77345 12.9675 3.74595C13.0131 3.68289 13.0473 3.58543 13.0017 3.51281C12.9637 3.45357 12.8934 3.423 12.8269 3.40771Z" fill="white"/>
<path d="M4.92623 21.9371C2.58353 22.3977 1.04453 23.3359 0.406125 24.7042C-0.135375 25.8259 -0.135375 27.1272 0.406125 28.249C1.38273 30.3663 4.53103 31.0485 5.75463 31.2224C6.00733 31.2606 6.20873 31.0428 6.18213 30.7867C5.55703 24.9163 10.5293 22.1321 11.8175 21.4919C11.8707 21.4613 11.8821 21.4174 11.8764 21.3887C11.8726 21.3696 11.8517 21.3409 11.8099 21.3371C9.02453 21.2836 6.03393 21.6658 4.92623 21.9371Z" fill="white"/>
</g>
<defs>
<clipPath id="clip0_1_97253">
<rect width="47" height="35" fill="white" transform="translate(0 0.984375)"/>
</clipPath>
</defs>
</svg>
