<svg width="54" height="45" viewBox="0 0 54 45" fill="none" xmlns="http://www.w3.org/2000/svg">
<path d="M40.4789 9.34523C38.1375 6.50916 34.9779 4.46476 31.4315 3.49107C27.885 2.51738 24.1245 2.66185 20.6632 3.90476C17.2018 5.14768 14.2084 7.42847 12.0915 10.4358C9.97463 13.4432 8.83735 17.0305 8.83496 20.7082V25.5874" stroke="white" stroke-opacity="0.4" stroke-width="5" stroke-linecap="round" stroke-linejoin="round"/>
<path d="M14.5142 35.9475C16.9696 38.5493 20.1494 40.354 23.6421 41.1281C27.1348 41.9021 30.7794 41.6098 34.1041 40.2891C37.4288 38.9683 40.2804 36.6799 42.2898 33.72C44.2991 30.7602 45.3737 27.2654 45.3743 23.6879V20.4395" stroke="white" stroke-opacity="0.4" stroke-width="5" stroke-linecap="round" stroke-linejoin="round"/>
<path d="M16.9235 17.5956C16.9133 17.7913 16.8487 17.9813 16.7336 18.1462L9.16422 28.8694C8.95542 29.1639 8.61171 29.3322 8.25119 29.3133C7.89067 29.2944 7.56645 29.0911 7.38958 28.7763L0.982574 17.3207C0.796874 16.9873 0.805681 16.5786 1.00903 16.2544C1.21105 15.9287 1.57263 15.7402 1.95411 15.7602L15.9305 16.4927C16.3119 16.5127 16.6518 16.7379 16.8187 17.0829C16.8985 17.2454 16.9326 17.4224 16.9235 17.5956Z" fill="white"/>
<path d="M36.8722 27.3592C36.879 27.166 36.9395 26.9775 37.0502 26.8128L44.3335 16.1028C44.5345 15.8087 44.8707 15.6366 45.2267 15.6491C45.5827 15.6615 45.9061 15.8566 46.086 16.164L52.6045 27.3559C52.7935 27.6817 52.7918 28.0851 52.5968 28.4085C52.4031 28.7333 52.0496 28.9254 51.6729 28.9122L37.871 28.4303C37.4943 28.4171 37.1551 28.2008 36.9845 27.8633C36.903 27.7043 36.8663 27.5303 36.8722 27.3592Z" fill="white"/>
</svg>
