<svg width="43" height="39" viewBox="0 0 43 39" fill="none" xmlns="http://www.w3.org/2000/svg">
<g opacity="0.84992" clip-path="url(#clip0_1_96939)">
<path fill-rule="evenodd" clip-rule="evenodd" d="M42.0855 12.1615H33.173C29.0255 12.1687 25.6655 15.4371 25.658 19.4716C25.6524 23.5153 29.0161 26.7982 33.173 26.8036H42.093V27.4461C42.093 34.4996 37.807 38.6706 30.5539 38.6706H11.541C4.28601 38.6706 0 34.4996 0 27.4461V12.0832C0 5.02962 4.28601 0.875 11.541 0.875H30.5464C37.7995 0.875 42.0855 5.02962 42.0855 12.0832V12.1615ZM9.97512 12.145H21.8454H21.8528H21.8678C22.7565 12.1414 23.4748 11.4371 23.4711 10.5709C23.4673 9.70645 22.7414 9.00764 21.8528 9.01128H9.97512C9.09212 9.01492 8.3756 9.71191 8.37186 10.5727C8.36811 11.4371 9.0865 12.1414 9.97512 12.145Z" fill="white"/>
<path opacity="0.4" d="M29.5438 20.3956C29.9839 22.3929 31.7391 23.7981 33.743 23.7616H40.5829C41.4166 23.7616 42.093 23.0727 42.093 22.2211V16.9055C42.0912 16.0558 41.4166 15.3651 40.5829 15.3633H33.582C31.3026 15.3706 29.4615 17.2582 29.4651 19.5843C29.4651 19.8567 29.492 20.1289 29.5438 20.3956Z" fill="white"/>
<path d="M33.6742 21.6634C34.8366 21.6634 35.7789 20.7233 35.7789 19.5636C35.7789 18.404 34.8366 17.4639 33.6742 17.4639C32.5119 17.4639 31.5696 18.404 31.5696 19.5636C31.5696 20.7233 32.5119 21.6634 33.6742 21.6634Z" fill="white"/>
</g>
<defs>
<clipPath id="clip0_1_96939">
<rect width="43" height="39" fill="white"/>
</clipPath>
</defs>
</svg>
