<svg width="42" height="41" viewBox="0 0 42 41" fill="none" xmlns="http://www.w3.org/2000/svg">
<g opacity="0.84992" clip-path="url(#clip0_1_96911)">
<path opacity="0.4" d="M2.75124 8.51172H26.5484C27.6493 8.51172 28.5429 9.40471 28.5429 10.505C28.5429 11.6053 27.6493 12.4983 26.5484 12.4983H2.75124C1.65033 12.4983 0.756836 11.6053 0.756836 10.505C0.756836 9.40471 1.65033 8.51172 2.75124 8.51172Z" fill="white"/>
<mask id="mask0_1_96911" style="mask-type:alpha" maskUnits="userSpaceOnUse" x="24" y="0" width="18" height="22">
<path fill-rule="evenodd" clip-rule="evenodd" d="M24.4187 21.4653V0H41.5798V21.4653H24.4187Z" fill="white"/>
</mask>
<g mask="url(#mask0_1_96911)">
<path d="M25.7656 0.183594C26.017 0.183594 26.2648 0.253592 26.4839 0.390003L40.7362 9.3662C41.1277 9.61389 41.3666 10.0429 41.3666 10.5059C41.3666 10.969 41.1277 11.398 40.7362 11.6457L26.4839 20.6219C26.0691 20.8821 25.5447 20.8983 25.1155 20.6596C24.6845 20.4226 24.4187 19.9721 24.4187 19.4822V1.52975C24.4187 1.03975 24.6845 0.589236 25.1155 0.352312C25.3184 0.239234 25.5429 0.183594 25.7656 0.183594Z" fill="white"/>
</g>
<path opacity="0.4" d="M39.319 32.0588H15.5218C14.4208 32.0588 13.5273 31.1658 13.5273 30.0655C13.5273 28.9652 14.4208 28.0723 15.5218 28.0723H39.319C40.4198 28.0723 41.3134 28.9652 41.3134 30.0655C41.3134 31.1658 40.4198 32.0588 39.319 32.0588Z" fill="white"/>
<mask id="mask1_1_96911" style="mask-type:alpha" maskUnits="userSpaceOnUse" x="0" y="19" width="18" height="22">
<path fill-rule="evenodd" clip-rule="evenodd" d="M17.5156 19.1055V40.5707H0.354492V19.1055H17.5156Z" fill="white"/>
</mask>
<g mask="url(#mask1_1_96911)">
<path d="M16.1688 40.3879C15.9174 40.3879 15.6696 40.3179 15.4505 40.1816L1.19823 31.2054C0.806727 30.9577 0.567871 30.5287 0.567871 30.0656C0.567871 29.6026 0.806727 29.1736 1.19823 28.9259L15.4505 19.9497C15.8653 19.6894 16.3898 19.6733 16.8189 19.912C17.25 20.1489 17.5157 20.5994 17.5157 21.0894V39.0419C17.5157 39.5318 17.25 39.9823 16.8189 40.2193C16.616 40.3323 16.3915 40.3879 16.1688 40.3879Z" fill="white"/>
</g>
</g>
<defs>
<clipPath id="clip0_1_96911">
<rect width="42" height="41" fill="white"/>
</clipPath>
</defs>
</svg>
