<svg width="45" height="43" viewBox="0 0 45 43" fill="none" xmlns="http://www.w3.org/2000/svg">
<g clip-path="url(#clip0_1_106337)">
<path opacity="0.4" d="M32.7526 0H12.9451C5.72687 0 1.63721 4.08967 1.63721 11.3078V31.0965C1.63721 38.3147 5.72687 42.4044 12.9451 42.4044H32.7526C39.9708 42.4044 44.0416 38.3147 44.0416 31.0965V11.3078C44.0416 4.08967 39.9708 0 32.7526 0Z" fill="white"/>
<path d="M13.0198 15.624C12.0587 15.624 11.2671 16.4155 11.2671 17.3955V31.9638C11.2671 32.925 12.0587 33.7165 13.0198 33.7165C13.9999 33.7165 14.7914 32.925 14.7914 31.9638V17.3955C14.7914 16.4155 13.9999 15.624 13.0198 15.624Z" fill="white"/>
<path d="M22.9148 8.66895C21.9536 8.66895 21.1621 9.4605 21.1621 10.4405V31.9631C21.1621 32.9242 21.9536 33.7158 22.9148 33.7158C23.8948 33.7158 24.6863 32.9242 24.6863 31.9631V10.4405C24.6863 9.4605 23.8948 8.66895 22.9148 8.66895Z" fill="white"/>
<path d="M32.6769 23.3135C31.6969 23.3135 30.9053 24.1051 30.9053 25.0851V31.964C30.9053 32.9252 31.6969 33.7167 32.658 33.7167C33.638 33.7167 34.4296 32.9252 34.4296 31.964V25.0851C34.4296 24.1051 33.638 23.3135 32.6769 23.3135Z" fill="white"/>
</g>
<defs>
<clipPath id="clip0_1_106337">
<rect width="44" height="43" fill="white" transform="translate(0.666504)"/>
</clipPath>
</defs>
</svg>
