<svg width="37" height="37" viewBox="0 0 37 37" fill="none" xmlns="http://www.w3.org/2000/svg">
<g clip-path="url(#clip0_1_97067)">
<path opacity="0.4" d="M18.211 36.4324C16.8105 36.4324 15.4118 35.9006 14.3427 34.8389L13.0132 33.5094C12.4978 32.9958 11.8075 32.7116 11.0754 32.7098H9.205C6.18175 32.7098 3.72126 30.2493 3.72126 27.2261V25.3539C3.71944 24.6235 3.43532 23.9333 2.91991 23.4142L1.61227 22.1084C-0.529506 19.9794 -0.538612 16.499 1.59223 14.3554L2.92174 13.0241C3.43532 12.5087 3.71944 11.8184 3.72126 11.0863V9.21776C3.72126 6.19269 6.18175 3.7322 9.205 3.7322H11.0772C11.8075 3.7322 12.496 3.44808 13.015 2.92903L14.3245 1.62321C16.4535 -0.518566 19.9321 -0.529494 22.0775 1.60317L23.407 2.93268C23.9242 3.44808 24.6126 3.7322 25.343 3.7322H27.2152C30.2384 3.7322 32.6989 6.19269 32.6989 9.21776V11.0881C32.7008 11.8184 32.9849 12.5087 33.5003 13.0277L34.8079 14.3354C35.8442 15.3662 36.4179 16.7394 36.4234 18.2055C36.427 19.6625 35.8661 21.0339 34.8443 22.0702C34.8261 22.0884 34.8097 22.1084 34.7915 22.1248L33.4985 23.4179C32.9849 23.9333 32.7008 24.6235 32.6989 25.3557V27.2261C32.6989 30.2493 30.2384 32.7098 27.2152 32.7098H25.343C24.6126 32.7116 23.9224 32.9958 23.4052 33.5112L22.0957 34.8188C21.0285 35.8933 19.6188 36.4324 18.211 36.4324Z" fill="white"/>
<path d="M8.93649 23.43C8.87772 23.43 8.82875 23.43 8.78957 23.43C8.76017 23.4398 8.721 23.4447 8.67203 23.4447C8.43694 23.4447 8.25083 23.386 8.11369 23.2684C7.98635 23.1607 7.92269 23.0235 7.92269 22.857C7.92269 22.6709 8.03042 22.4848 8.24592 22.2987C8.86302 22.0146 9.39198 21.6571 9.83277 21.2261C10.2736 20.7951 10.6213 20.276 10.876 19.6686C10.6605 19.747 10.445 19.8058 10.2295 19.845C10.014 19.8743 9.79359 19.889 9.56828 19.889C9.04913 19.889 8.59856 19.8058 8.21654 19.6393C7.84432 19.4727 7.53087 19.2621 7.2762 19.0075C7.02152 18.743 6.83051 18.4491 6.70317 18.1259C6.58563 17.8026 6.52686 17.4843 6.52686 17.1708C6.52686 16.8084 6.60032 16.446 6.74725 16.0836C6.89418 15.7113 7.10478 15.3832 7.37905 15.0991C7.66311 14.8053 8.01084 14.5702 8.42225 14.3939C8.84344 14.2078 9.32831 14.1147 9.87685 14.1147C10.3862 14.1147 10.827 14.2127 11.1992 14.4086C11.5714 14.6045 11.8751 14.8641 12.1102 15.1873C12.3453 15.5007 12.5167 15.8632 12.6244 16.2746C12.7322 16.686 12.7763 17.1072 12.7567 17.5382C12.7567 18.1749 12.6685 18.7871 12.4922 19.3748C12.3257 19.9527 12.0759 20.4964 11.7429 21.0057C11.4196 21.5053 11.018 21.9607 10.538 22.3722C10.0679 22.7836 9.534 23.1362 8.93649 23.43ZM9.5536 18.6108C9.85726 18.6108 10.1609 18.5471 10.4646 18.4197C10.778 18.2924 11.0621 18.1308 11.3168 17.9349C11.2972 17.9349 11.2923 17.8908 11.3021 17.8026C11.3217 17.7047 11.3314 17.6116 11.3314 17.5235C11.3314 17.2492 11.307 16.9847 11.258 16.7301C11.209 16.4656 11.1257 16.2354 11.0082 16.0395C10.8907 15.8338 10.7339 15.6722 10.538 15.5546C10.3421 15.4273 10.0972 15.3636 9.80338 15.3636C9.5585 15.3636 9.32341 15.4126 9.09811 15.5105C8.88262 15.5987 8.68672 15.726 8.5104 15.8926C8.34388 16.0493 8.21165 16.2403 8.11369 16.4656C8.01574 16.6909 7.96676 16.9309 7.96676 17.1855C7.96676 17.4108 8.01084 17.6116 8.099 17.788C8.19695 17.9545 8.31939 18.1014 8.46632 18.2287C8.61325 18.3561 8.77977 18.454 8.96588 18.5226C9.16179 18.5814 9.3577 18.6108 9.5536 18.6108Z" fill="white"/>
<path d="M16.0451 23.43C15.9864 23.43 15.9374 23.43 15.8982 23.43C15.8688 23.4398 15.8296 23.4447 15.7807 23.4447C15.5456 23.4447 15.3595 23.386 15.2223 23.2684C15.095 23.1607 15.0313 23.0235 15.0313 22.857C15.0313 22.6709 15.1391 22.4848 15.3546 22.2987C15.9717 22.0146 16.5006 21.6571 16.9414 21.2261C17.3822 20.7951 17.7299 20.276 17.9846 19.6686C17.7691 19.747 17.5536 19.8058 17.3381 19.845C17.1226 19.8743 16.9022 19.889 16.6769 19.889C16.1578 19.889 15.7072 19.8058 15.3252 19.6393C14.953 19.4727 14.6395 19.2621 14.3848 19.0075C14.1302 18.743 13.9391 18.4491 13.8118 18.1259C13.6943 17.8026 13.6355 17.4843 13.6355 17.1708C13.6355 16.8084 13.709 16.446 13.8559 16.0836C14.0028 15.7113 14.2134 15.3832 14.4877 15.0991C14.7717 14.8053 15.1195 14.5702 15.5309 14.3939C15.9521 14.2078 16.4369 14.1147 16.9855 14.1147C17.4948 14.1147 17.9356 14.2127 18.3079 14.4086C18.6801 14.6045 18.9837 14.8641 19.2188 15.1873C19.4539 15.5007 19.6253 15.8632 19.7331 16.2746C19.8408 16.686 19.8849 17.1072 19.8653 17.5382C19.8653 18.1749 19.7771 18.7871 19.6008 19.3748C19.4343 19.9527 19.1845 20.4964 18.8515 21.0057C18.5282 21.5053 18.1266 21.9607 17.6467 22.3722C17.1765 22.7836 16.6427 23.1362 16.0451 23.43ZM16.6622 18.6108C16.9659 18.6108 17.2695 18.5471 17.5732 18.4197C17.8867 18.2924 18.1707 18.1308 18.4254 17.9349C18.4058 17.9349 18.4009 17.8908 18.4107 17.8026C18.4303 17.7047 18.4401 17.6116 18.4401 17.5235C18.4401 17.2492 18.4156 16.9847 18.3666 16.7301C18.3176 16.4656 18.2344 16.2354 18.1168 16.0395C17.9993 15.8338 17.8426 15.6722 17.6467 15.5546C17.4508 15.4273 17.2059 15.3636 16.912 15.3636C16.6671 15.3636 16.4321 15.4126 16.2068 15.5105C15.9913 15.5987 15.7954 15.726 15.619 15.8926C15.4525 16.0493 15.3203 16.2403 15.2223 16.4656C15.1244 16.6909 15.0754 16.9309 15.0754 17.1855C15.0754 17.4108 15.1195 17.6116 15.2076 17.788C15.3056 17.9545 15.428 18.1014 15.575 18.2287C15.7219 18.3561 15.8884 18.454 16.0745 18.5226C16.2704 18.5814 16.4663 18.6108 16.6622 18.6108Z" fill="white"/>
<path d="M27.8393 13.1447C27.9862 13.0075 28.1723 12.939 28.3976 12.939C28.5837 12.939 28.7405 12.9977 28.8678 13.1153C29.0049 13.2328 29.0735 13.3798 29.0735 13.5561C29.0735 13.6051 29.0686 13.654 29.0588 13.703C29.049 13.7422 29.0343 13.7863 29.0147 13.8352L25.8557 18.3754L22.4764 23.2093C22.3882 23.3269 22.2854 23.4053 22.1678 23.4444C22.0503 23.4836 21.9425 23.5032 21.8446 23.5032C21.6585 23.5032 21.4968 23.4493 21.3597 23.3416C21.2324 23.2338 21.1687 23.0869 21.1687 22.9008C21.1687 22.8322 21.1785 22.7637 21.1981 22.6951C21.2177 22.6167 21.252 22.5384 21.3009 22.46C21.8887 21.6372 22.447 20.8438 22.9759 20.0797C23.5049 19.3157 24.0338 18.5566 24.5628 17.8023C25.0819 17.0579 25.6109 16.3037 26.1496 15.5396C26.6883 14.7756 27.2467 13.9822 27.8246 13.1594L27.8393 13.1447ZM20.4487 15.2899C20.4683 14.9274 20.5467 14.614 20.6838 14.3495C20.821 14.085 20.9924 13.8646 21.1981 13.6883C21.4038 13.512 21.6389 13.3847 21.9033 13.3063C22.1678 13.2181 22.4323 13.1741 22.6968 13.1741C22.971 13.1741 23.2404 13.2181 23.5049 13.3063C23.7694 13.3945 24.0044 13.5267 24.2101 13.703C24.4256 13.8793 24.5971 14.0997 24.7244 14.3642C24.8517 14.6189 24.9154 14.9127 24.9154 15.2458C24.9154 15.5788 24.8468 15.8825 24.7097 16.1567C24.5824 16.431 24.4109 16.671 24.1954 16.8767C23.98 17.0726 23.7351 17.2244 23.4608 17.3322C23.1865 17.4399 22.9025 17.4938 22.6086 17.4938C22.3539 17.4938 22.0993 17.4448 21.8446 17.3469C21.5997 17.2489 21.3744 17.1069 21.1687 16.9208C20.9728 16.7347 20.8063 16.5045 20.6691 16.2302C20.5418 15.9559 20.4683 15.6425 20.4487 15.2899ZM25.5031 21.2405C25.5227 20.8879 25.5962 20.5842 25.7235 20.3295C25.8606 20.0651 26.0321 19.8496 26.2378 19.683C26.4435 19.5067 26.6737 19.3794 26.9283 19.301C27.183 19.2129 27.4426 19.1688 27.7071 19.1688C27.9715 19.1688 28.2311 19.2129 28.4858 19.301C28.7503 19.3892 28.9853 19.5214 29.191 19.6977C29.4065 19.8643 29.578 20.0749 29.7053 20.3295C29.8326 20.5744 29.8963 20.8634 29.8963 21.1964C29.8963 21.5392 29.8326 21.8478 29.7053 22.1221C29.5878 22.3963 29.4261 22.6265 29.2204 22.8126C29.0147 22.9987 28.7747 23.1408 28.5005 23.2387C28.236 23.3367 27.9617 23.3857 27.6777 23.3857C27.4328 23.3857 27.1879 23.3416 26.943 23.2534C26.6981 23.1751 26.4729 23.0477 26.2672 22.8714C26.0615 22.6951 25.89 22.4747 25.7529 22.2102C25.6158 21.936 25.5325 21.6127 25.5031 21.2405ZM22.638 14.4377C22.5205 14.4377 22.4176 14.467 22.3294 14.5258C22.2511 14.5748 22.1825 14.6434 22.1237 14.7315C22.065 14.8099 22.016 14.9029 21.9768 15.0107C21.9474 15.1086 21.9229 15.2066 21.9033 15.3045C21.9327 15.6082 22.0258 15.8286 22.1825 15.9657C22.3392 16.1029 22.5156 16.1714 22.7115 16.1714C22.8976 16.1714 23.069 16.098 23.2257 15.951C23.3922 15.8041 23.4755 15.5837 23.4755 15.2899C23.4755 15.0548 23.3873 14.854 23.211 14.6874C23.0445 14.5209 22.8535 14.4377 22.638 14.4377ZM27.6924 20.4618C27.4377 20.4618 27.2565 20.545 27.1487 20.7115C27.0508 20.8781 26.9871 21.0544 26.9577 21.2405C26.9871 21.5246 27.0753 21.7401 27.2222 21.887C27.3691 22.0241 27.5405 22.0927 27.7364 22.0927C27.903 22.0927 28.0646 22.0241 28.2213 21.887C28.378 21.7401 28.4564 21.5246 28.4564 21.2405C28.4564 20.9956 28.378 20.8046 28.2213 20.6675C28.0646 20.5303 27.8883 20.4618 27.6924 20.4618Z" fill="white"/>
</g>
<defs>
<clipPath id="clip0_1_97067">
<rect width="37" height="37" fill="white"/>
</clipPath>
</defs>
</svg>
