<svg width="45" height="46" viewBox="0 0 45 46" fill="none" xmlns="http://www.w3.org/2000/svg">
<g clip-path="url(#clip0_1_97286)">
<path d="M19.2599 39.8027C29.7081 39.8027 38.1782 31.2795 38.1782 20.7656C38.1782 10.2517 29.7081 1.72852 19.2599 1.72852C8.81156 1.72852 0.341553 10.2517 0.341553 20.7656C0.341553 31.2795 8.81156 39.8027 19.2599 39.8027Z" fill="white"/>
<path opacity="0.4" d="M41.4258 45.63C40.6909 45.6062 39.9921 45.3039 39.4694 44.7835L34.9893 39.5468C34.0288 38.6684 33.9502 37.1756 34.8132 36.2C35.2171 35.7913 35.7663 35.5615 36.3392 35.5615C36.912 35.5615 37.4612 35.7913 37.8652 36.2L43.4996 40.7083C44.3112 41.539 44.5616 42.7722 44.139 43.8567C43.7163 44.9412 42.6996 45.6744 41.5432 45.7285L41.4258 45.63Z" fill="white"/>
</g>
<defs>
<clipPath id="clip0_1_97286">
<rect width="45" height="45" fill="white" transform="translate(0 0.984375)"/>
</clipPath>
</defs>
</svg>
