<svg width="29" height="27" viewBox="0 0 29 27" fill="none" xmlns="http://www.w3.org/2000/svg">
<g clip-path="url(#clip0_1_88105)">
<path opacity="0.4" d="M22.632 6.7876C26.1006 6.7876 28.9239 9.70258 28.9239 13.2853V20.4069C28.9239 23.9809 26.1077 26.8886 22.6462 26.8886H6.91508C3.44506 26.8886 0.620361 23.9751 0.620361 20.3923V13.2707C0.620361 9.69674 3.43799 6.7876 6.90093 6.7876H8.2312H22.632Z" fill="white"/>
<path d="M15.5448 19.1578L19.6616 14.9577C20.0861 14.5236 20.0861 13.825 19.6587 13.3924C19.2314 12.9611 18.5422 12.9626 18.1176 13.3952L15.8632 15.6951V1.10681C15.8632 0.495907 15.375 0 14.7721 0C14.1707 0 13.6839 0.495907 13.6839 1.10681V15.6951L11.4281 13.3952C11.0035 12.9626 10.3143 12.9611 9.88692 13.3924C9.67322 13.6094 9.56567 13.8926 9.56567 14.1772C9.56567 14.4589 9.67322 14.7421 9.88408 14.9577L14.0009 19.1578C14.2061 19.3663 14.4834 19.4841 14.7721 19.4841C15.0622 19.4841 15.3396 19.3663 15.5448 19.1578Z" fill="white"/>
</g>
<defs>
<clipPath id="clip0_1_88105">
<rect width="29" height="27" fill="white"/>
</clipPath>
</defs>
</svg>
