<svg width="28" height="33" viewBox="0 0 28 33" fill="none" xmlns="http://www.w3.org/2000/svg">
<g clip-path="url(#clip0_1_97060)">
<path d="M14.3521 32.4428C14.1512 32.4428 13.9503 32.3967 13.7691 32.3029L7.9276 29.279C6.27003 28.4201 4.97338 27.4561 3.96087 26.3331C1.7448 23.8772 0.511831 20.7245 0.492235 17.4541L0.423646 6.69014C0.41548 5.44784 1.21732 4.33279 2.41599 3.91285L13.142 0.173226C13.7789 -0.0542382 14.4893 -0.0574195 15.1376 0.162091L25.9044 3.77447C27.1096 4.1769 27.9245 5.284 27.931 6.52471L27.9996 17.2966C28.0209 20.5622 26.8304 23.7276 24.6486 26.2107C23.6475 27.3496 22.3623 28.3278 20.721 29.2027L14.9318 32.2949C14.7522 32.3919 14.5529 32.4412 14.3521 32.4428Z" fill="white"/>
<path d="M13.107 19.9861C12.7934 19.9877 12.4799 19.8747 12.2382 19.6425L9.1288 16.6521C8.64868 16.1876 8.64378 15.4336 9.119 14.966C9.59423 14.4967 10.37 14.492 10.8517 14.9548L13.089 17.1054L18.5516 11.7194C19.0285 11.2502 19.8042 11.2454 20.2843 11.7083C20.7661 12.1728 20.771 12.9283 20.2958 13.3944L13.9709 19.6314C13.7324 19.8668 13.4205 19.9845 13.107 19.9861Z" fill="#0328EE"/>
</g>
<defs>
<clipPath id="clip0_1_97060">
<rect width="28" height="33" fill="white"/>
</clipPath>
</defs>
</svg>
