<svg width="179" height="32" viewBox="0 0 179 32" fill="none" xmlns="http://www.w3.org/2000/svg">
<g clip-path="url(#clip0_1_96895)">
<path d="M38.9915 13.4088C38.9915 11.5088 39.4157 9.81159 40.2643 8.31735C41.1313 6.80467 42.3028 5.63326 43.7785 4.80313C45.2728 3.95455 46.9423 3.53027 48.787 3.53027C50.9453 3.53027 52.8362 4.08369 54.4595 5.19053C56.0829 6.29737 57.2174 7.8285 57.8631 9.78391H53.4081C52.9653 8.86155 52.3381 8.16977 51.5264 7.70859C50.7332 7.24741 49.8108 7.01681 48.7593 7.01681C47.634 7.01681 46.6287 7.2843 45.7432 7.81927C44.8762 8.3358 44.1936 9.07369 43.6955 10.033C43.2159 10.9922 42.9761 12.1175 42.9761 13.4088C42.9761 14.6817 43.2159 15.807 43.6955 16.7847C44.1936 17.744 44.8762 18.4911 45.7432 19.0261C46.6287 19.5426 47.634 19.8008 48.7593 19.8008C49.8108 19.8008 50.7332 19.5703 51.5264 19.1091C52.3381 18.6294 52.9653 17.9284 53.4081 17.0061H57.8631C57.2174 18.9799 56.0829 20.5203 54.4595 21.6271C52.8546 22.7155 50.9638 23.2597 48.787 23.2597C46.9423 23.2597 45.2728 22.8447 43.7785 22.0145C42.3028 21.1659 41.1313 19.9945 40.2643 18.5003C39.4157 17.0061 38.9915 15.3089 38.9915 13.4088Z" fill="white"/>
<path d="M67.979 23.3424C66.5032 23.3424 65.175 23.0196 63.9944 22.3739C62.8137 21.7098 61.8821 20.7783 61.1996 19.5792C60.5355 18.3801 60.2034 16.9965 60.2034 15.4285C60.2034 13.8605 60.5447 12.4769 61.2273 11.2779C61.9283 10.0788 62.8783 9.15647 64.0774 8.51081C65.2765 7.8467 66.6139 7.51465 68.0897 7.51465C69.5655 7.51465 70.9029 7.8467 72.102 8.51081C73.3011 9.15647 74.2419 10.0788 74.9244 11.2779C75.6254 12.4769 75.9759 13.8605 75.9759 15.4285C75.9759 16.9965 75.6162 18.3801 74.8967 19.5792C74.1957 20.7783 73.2365 21.7098 72.019 22.3739C70.8199 23.0196 69.4732 23.3424 67.979 23.3424ZM67.979 19.9666C68.68 19.9666 69.3349 19.8005 69.9436 19.4685C70.5708 19.118 71.0689 18.6015 71.4379 17.9189C71.8068 17.2364 71.9913 16.4062 71.9913 15.4285C71.9913 13.9712 71.6039 12.8551 70.8291 12.0803C70.0728 11.2871 69.1412 10.8905 68.0343 10.8905C66.9275 10.8905 65.9959 11.2871 65.2396 12.0803C64.5017 12.8551 64.1327 13.9712 64.1327 15.4285C64.1327 16.8859 64.4924 18.0112 65.2119 18.8044C65.9498 19.5792 66.8722 19.9666 67.979 19.9666Z" fill="white"/>
<path d="M97.8552 7.54199C99.7369 7.54199 101.25 8.12308 102.393 9.28527C103.555 10.429 104.137 12.0339 104.137 14.1V23.0931H100.263V14.6258C100.263 13.4267 99.9582 12.5135 99.3495 11.8863C98.7407 11.2407 97.9106 10.9178 96.8591 10.9178C95.8076 10.9178 94.9682 11.2407 94.341 11.8863C93.7323 12.5135 93.4279 13.4267 93.4279 14.6258V23.0931H89.5539V14.6258C89.5539 13.4267 89.2496 12.5135 88.6408 11.8863C88.032 11.2407 87.2019 10.9178 86.1504 10.9178C85.0805 10.9178 84.2319 11.2407 83.6047 11.8863C82.9959 12.5135 82.6915 13.4267 82.6915 14.6258V23.0931H78.8176V7.76336H82.6915V9.61732C83.1896 8.97166 83.8261 8.46436 84.6008 8.09541C85.3941 7.72647 86.2611 7.54199 87.2019 7.54199C88.401 7.54199 89.4709 7.80026 90.4118 8.31678C91.3526 8.81486 92.0812 9.53431 92.5978 10.4751C93.0958 9.58965 93.8153 8.87943 94.7561 8.34445C95.7154 7.80948 96.7484 7.54199 97.8552 7.54199Z" fill="white"/>
<path d="M111.687 9.97737C112.185 9.27637 112.867 8.69528 113.734 8.2341C114.62 7.75447 115.625 7.51465 116.75 7.51465C118.06 7.51465 119.241 7.83748 120.292 8.48314C121.362 9.12879 122.202 10.0511 122.81 11.2502C123.438 12.4308 123.751 13.8052 123.751 15.3732C123.751 16.9412 123.438 18.334 122.81 19.5515C122.202 20.7506 121.362 21.6822 120.292 22.3463C119.241 23.0104 118.06 23.3424 116.75 23.3424C115.625 23.3424 114.629 23.1118 113.762 22.6507C112.913 22.1895 112.222 21.6084 111.687 20.9074V30.3985H107.813V7.76369H111.687V9.97737ZM119.794 15.3732C119.794 14.4508 119.601 13.6576 119.213 12.9935C118.844 12.3109 118.346 11.7944 117.719 11.4439C117.11 11.0934 116.446 10.9181 115.727 10.9181C115.026 10.9181 114.362 11.1026 113.734 11.4716C113.126 11.8221 112.627 12.3386 112.24 13.0211C111.871 13.7037 111.687 14.5062 111.687 15.4285C111.687 16.3509 111.871 17.1533 112.24 17.8359C112.627 18.5185 113.126 19.0442 113.734 19.4132C114.362 19.7636 115.026 19.9389 115.727 19.9389C116.446 19.9389 117.11 19.7544 117.719 19.3855C118.346 19.0165 118.844 18.4908 119.213 17.8082C119.601 17.1257 119.794 16.314 119.794 15.3732Z" fill="white"/>
<path d="M125.57 15.3732C125.57 13.8236 125.875 12.4493 126.483 11.2502C127.11 10.0511 127.95 9.12879 129.001 8.48314C130.071 7.83748 131.261 7.51465 132.571 7.51465C133.715 7.51465 134.711 7.74524 135.559 8.20643C136.426 8.66761 137.118 9.2487 137.635 9.9497V7.76369H141.536V23.0934H137.635V20.852C137.137 21.5715 136.445 22.171 135.559 22.6507C134.692 23.1118 133.687 23.3424 132.543 23.3424C131.252 23.3424 130.071 23.0104 129.001 22.3463C127.95 21.6822 127.11 20.7506 126.483 19.5515C125.875 18.334 125.57 16.9412 125.57 15.3732ZM137.635 15.4285C137.635 14.4877 137.45 13.6852 137.081 13.0211C136.712 12.3386 136.214 11.8221 135.587 11.4716C134.96 11.1026 134.287 10.9181 133.567 10.9181C132.848 10.9181 132.184 11.0934 131.575 11.4439C130.966 11.7944 130.468 12.3109 130.081 12.9935C129.712 13.6576 129.527 14.4508 129.527 15.3732C129.527 16.2955 129.712 17.1072 130.081 17.8082C130.468 18.4908 130.966 19.0165 131.575 19.3855C132.202 19.7544 132.866 19.9389 133.567 19.9389C134.287 19.9389 134.96 19.7636 135.587 19.4132C136.214 19.0442 136.712 18.5277 137.081 17.8636C137.45 17.181 137.635 16.3693 137.635 15.4285Z" fill="white"/>
<path d="M153.815 7.54199C155.641 7.54199 157.117 8.12308 158.242 9.28527C159.368 10.429 159.93 12.0339 159.93 14.1V23.0931H156.056V14.6258C156.056 13.4082 155.752 12.4766 155.143 11.831C154.534 11.1669 153.704 10.8348 152.653 10.8348C151.583 10.8348 150.734 11.1669 150.107 11.831C149.498 12.4766 149.194 13.4082 149.194 14.6258V23.0931H145.32V7.76336H149.194V9.67266C149.71 9.00856 150.365 8.49203 151.158 8.12308C151.97 7.73569 152.856 7.54199 153.815 7.54199Z" fill="white"/>
<path d="M178.28 7.76367L168.789 30.3432H164.666L167.986 22.706L161.843 7.76367H166.187L170.144 18.4723L174.157 7.76367H178.28Z" fill="white"/>
<path d="M3.59822 31.4241H0.83667V12.0859H11.1956V23.8268C11.1956 28.0221 7.79597 31.4241 3.59822 31.4241Z" fill="#0328EE"/>
<path d="M25.0081 12.0858C25.0081 5.41224 19.5983 0 12.9223 0C12.336 0 11.7596 0.0443424 11.1954 0.125637V12.0858H25.0081Z" fill="#0328EE"/>
<path d="M21.0948 24.8256C23.744 23.7446 25.0153 20.7208 23.9344 18.0716C22.8534 15.4224 19.8295 14.1511 17.1803 15.232C14.5311 16.313 13.2598 19.3369 14.3408 21.9861C15.4218 24.6353 18.4457 25.9066 21.0948 24.8256Z" fill="white"/>
</g>
<defs>
<clipPath id="clip0_1_96895">
<rect width="179" height="32" fill="white"/>
</clipPath>
</defs>
</svg>
