<svg width="178" height="30" viewBox="0 0 178 30" fill="none" xmlns="http://www.w3.org/2000/svg">
<g clip-path="url(#clip0_1_96870)">
<path d="M22.6021 12.7751C18.8417 12.7751 15.7892 9.73424 15.7892 5.99702C15.7892 5.50955 15.8473 5.0453 15.9401 4.58105H6.88721C3.38211 4.58105 0.538574 7.41298 0.538574 10.8949V22.5592C0.538574 26.0527 3.38211 28.873 6.88721 28.873H18.6096C22.1263 28.873 24.9582 26.0411 24.9582 22.5592V12.3457C24.2386 12.6126 23.4378 12.7751 22.6021 12.7751Z" fill="#0328EE"/>
<path d="M24.9691 22.5592V12.3457C24.2379 12.6126 23.437 12.7751 22.613 12.7751C18.8525 12.7751 15.8001 9.73424 15.8001 5.99702C15.8001 5.50955 15.8581 5.0453 15.951 4.58105H6.89807C3.41619 4.58105 0.595863 7.36656 0.549438 10.8253C8.90596 14.2723 17.4946 18.4622 24.9226 23.36C24.9458 23.0931 24.9691 22.8261 24.9691 22.5592Z" fill="#0328EE"/>
<path d="M23.1236 10.4341C25.8511 10.4341 28.0563 8.24056 28.0563 5.52469C28.0563 2.82043 25.8511 0.615234 23.1236 0.615234C20.3961 0.615234 18.1909 2.80882 18.1909 5.52469C18.1909 8.22895 20.3961 10.4341 23.1236 10.4341Z" fill="white"/>
<path d="M53.0088 16.6786C52.8147 17.5036 52.4871 18.3044 52.026 19.081C51.565 19.8333 50.9947 20.5127 50.3152 21.1194C49.6357 21.7018 48.8592 22.175 47.9856 22.539C47.112 22.8788 46.1777 23.0486 45.1828 23.0486C44.0422 23.0486 42.9623 22.8302 41.9431 22.3934C40.9482 21.9323 40.0624 21.3135 39.2859 20.537C38.5336 19.7605 37.927 18.8626 37.4659 17.8434C37.0291 16.7999 36.8107 15.6836 36.8107 14.4945C36.8107 13.3055 37.0291 12.2013 37.4659 11.1821C37.927 10.1386 38.5336 9.22859 39.2859 8.45205C40.0624 7.67551 40.9482 7.06884 41.9431 6.63203C42.9623 6.17096 44.0422 5.94043 45.1828 5.94043C46.1777 5.94043 47.112 6.12243 47.9856 6.48643C48.8592 6.82617 49.6357 7.29937 50.3152 7.90605C50.9947 8.48845 51.565 9.16793 52.026 9.94447C52.4871 10.6968 52.8147 11.4854 53.0088 12.3105H48.8228C48.6287 11.8737 48.3617 11.4854 48.022 11.1457C47.7308 10.8545 47.3547 10.5876 46.8936 10.3449C46.4325 10.0779 45.8622 9.94447 45.1828 9.94447C43.9937 9.94447 42.9987 10.357 42.1979 11.1821C41.3971 12.0072 40.9967 13.1113 40.9967 14.4945C40.9967 15.8777 41.3971 16.9819 42.1979 17.807C42.9987 18.632 43.9937 19.0446 45.1828 19.0446C45.8622 19.0446 46.4325 18.9232 46.8936 18.6806C47.3547 18.4379 47.7308 18.171 48.022 17.8798C48.3617 17.54 48.6287 17.1396 48.8228 16.6786H53.0088Z" fill="white"/>
<path d="M59.9249 14.4945C59.9249 15.8777 60.3253 16.9819 61.1261 17.807C61.9269 18.632 62.9219 19.0446 64.111 19.0446C65.3 19.0446 66.295 18.632 67.0958 17.807C67.8966 16.9819 68.297 15.8777 68.297 14.4945C68.297 13.1113 67.8966 12.0072 67.0958 11.1821C66.295 10.357 65.3 9.94447 64.111 9.94447C62.9219 9.94447 61.9269 10.357 61.1261 11.1821C60.3253 12.0072 59.9249 13.1113 59.9249 14.4945ZM72.483 14.4945C72.483 15.6836 72.2525 16.7999 71.7914 17.8434C71.3546 18.8626 70.748 19.7605 69.9714 20.537C69.2191 21.3135 68.3334 21.9323 67.3142 22.3934C66.3192 22.8302 65.2515 23.0486 64.111 23.0486C62.9704 23.0486 61.8905 22.8302 60.8713 22.3934C59.8764 21.9323 58.9906 21.3135 58.2141 20.537C57.4618 19.7605 56.8551 18.8626 56.3941 17.8434C55.9573 16.7999 55.7389 15.6836 55.7389 14.4945C55.7389 13.3055 55.9573 12.2013 56.3941 11.1821C56.8551 10.1386 57.4618 9.22859 58.2141 8.45205C58.9906 7.67551 59.8764 7.06884 60.8713 6.63203C61.8905 6.17096 62.9704 5.94043 64.111 5.94043C65.2515 5.94043 66.3192 6.17096 67.3142 6.63203C68.3334 7.06884 69.2191 7.67551 69.9714 8.45205C70.748 9.22859 71.3546 10.1386 71.7914 11.1821C72.2525 12.2013 72.483 13.3055 72.483 14.4945Z" fill="white"/>
<path d="M84.1141 5.94043C84.9634 5.94043 85.6914 6.06176 86.2981 6.30443C86.9048 6.52283 87.4023 6.7655 87.7905 7.03244C88.2273 7.34791 88.5792 7.71191 88.8461 8.12445C89.2344 7.71191 89.6833 7.34791 90.193 7.03244C90.6298 6.7655 91.1515 6.52283 91.7582 6.30443C92.3648 6.06176 93.0322 5.94043 93.7602 5.94043C95.5802 5.94043 97.0362 6.52283 98.1282 7.68764C99.2202 8.85246 99.7662 10.5754 99.7662 12.8565V22.8666H95.5802V13.2205C95.5802 12.2013 95.3011 11.4005 94.743 10.8181C94.2091 10.2357 93.5782 9.94447 92.8502 9.94447C92.1222 9.94447 91.4791 10.2357 90.921 10.8181C90.3871 11.4005 90.1202 12.2013 90.1202 13.2205V22.8666H85.9341V13.2205C85.9341 12.2013 85.655 11.4005 85.0969 10.8181C84.563 10.2357 83.9321 9.94447 83.2041 9.94447C82.4761 9.94447 81.833 10.2357 81.2749 10.8181C80.741 11.4005 80.4741 12.2013 80.4741 13.2205V22.8666H76.288V6.12243H79.382L80.1101 7.76044C80.4498 7.42071 80.8259 7.11737 81.2385 6.85043C81.5782 6.63203 81.9907 6.42576 82.4761 6.23163C82.9614 6.03749 83.5074 5.94043 84.1141 5.94043Z" fill="white"/>
<path d="M112.87 5.94043C113.914 5.94043 114.909 6.15883 115.855 6.59563C116.801 7.00817 117.626 7.60271 118.33 8.37925C119.058 9.13153 119.629 10.0294 120.041 11.0729C120.478 12.1164 120.696 13.2569 120.696 14.4945C120.696 15.7321 120.478 16.8727 120.041 17.9162C119.629 18.9596 119.058 19.8697 118.33 20.6462C117.626 21.3985 116.801 21.993 115.855 22.4298C114.909 22.8424 113.914 23.0486 112.87 23.0486C112.166 23.0486 111.548 22.9637 111.014 22.7938C110.504 22.624 110.055 22.4419 109.667 22.2478C109.23 22.0051 108.842 21.7261 108.502 21.4106V28.6907H104.316V6.12243H107.41L108.138 7.76044C108.502 7.42071 108.927 7.11737 109.412 6.85043C109.825 6.63203 110.322 6.42576 110.905 6.23163C111.487 6.03749 112.142 5.94043 112.87 5.94043ZM108.138 14.4945C108.138 15.8777 108.539 16.9819 109.339 17.807C110.14 18.632 111.135 19.0446 112.324 19.0446C113.513 19.0446 114.508 18.632 115.309 17.807C116.11 16.9819 116.51 15.8777 116.51 14.4945C116.51 13.1113 116.11 12.0072 115.309 11.1821C114.508 10.357 113.513 9.94447 112.324 9.94447C111.135 9.94447 110.14 10.357 109.339 11.1821C108.539 12.0072 108.138 13.1113 108.138 14.4945Z" fill="white"/>
<path d="M131.44 5.94043C132.386 5.94043 133.26 6.11029 134.061 6.45003C134.862 6.7655 135.553 7.21444 136.136 7.79684C136.718 8.37925 137.167 9.07086 137.483 9.87167C137.822 10.6725 137.992 11.5461 137.992 12.4925V22.8666H134.898L134.17 21.2286C133.782 21.5683 133.357 21.8717 132.896 22.1386C132.484 22.3813 131.986 22.5997 131.404 22.7938C130.821 22.9637 130.166 23.0486 129.438 23.0486C127.618 23.0486 126.223 22.6118 125.252 21.7382C124.281 20.8403 123.796 19.6998 123.796 18.3166C123.796 17.4915 123.954 16.7392 124.269 16.0597C124.609 15.356 125.167 14.7615 125.944 14.2761C126.72 13.7665 127.739 13.3783 129.001 13.1113C130.287 12.8201 131.889 12.6745 133.806 12.6745C133.806 11.7524 133.551 11.0365 133.042 10.5269C132.556 10.0173 131.901 9.76247 131.076 9.76247C130.518 9.76247 130.069 9.85953 129.729 10.0537C129.414 10.2478 129.159 10.4541 128.965 10.6725C128.746 10.9394 128.601 11.2428 128.528 11.5825H124.342C124.439 10.806 124.657 10.0779 124.997 9.39846C125.361 8.71899 125.847 8.12445 126.453 7.61484C127.06 7.10524 127.776 6.70483 128.601 6.41363C129.45 6.09816 130.397 5.94043 131.44 5.94043ZM130.166 19.7726C131.258 19.7726 132.132 19.4571 132.787 18.8262C133.466 18.171 133.806 17.3338 133.806 16.3146V15.5865C132.568 15.5865 131.574 15.6472 130.821 15.7685C130.069 15.8656 129.474 16.0233 129.038 16.2418C128.625 16.4359 128.346 16.6786 128.2 16.9698C128.055 17.261 127.982 17.5886 127.982 17.9526C127.982 18.4136 128.188 18.8383 128.601 19.2266C129.013 19.5906 129.535 19.7726 130.166 19.7726Z" fill="white"/>
<path d="M151.082 5.94043C152.077 5.94043 152.987 6.11029 153.812 6.45003C154.637 6.7655 155.341 7.23871 155.923 7.86965C156.53 8.47632 156.991 9.21646 157.306 10.0901C157.646 10.9637 157.816 11.9465 157.816 13.0385V22.8666H153.63V13.5845C153.63 12.4925 153.302 11.6189 152.647 10.9637C152.016 10.2842 151.191 9.94447 150.172 9.94447C149.153 9.94447 148.316 10.2842 147.66 10.9637C147.029 11.6189 146.714 12.4925 146.714 13.5845V22.8666H142.528V6.12243H145.622L146.35 7.76044C146.763 7.42071 147.211 7.11737 147.697 6.85043C148.109 6.63203 148.595 6.42576 149.153 6.23163C149.735 6.03749 150.378 5.94043 151.082 5.94043Z" fill="white"/>
<path d="M160.56 6.12305H164.928L169.114 17.0432L172.936 6.12305H177.305C176.115 9.18068 175.036 11.9471 174.065 14.4223C173.652 15.4901 173.24 16.5336 172.827 17.5528C172.439 18.572 172.087 19.5063 171.772 20.3556C171.456 21.1807 171.189 21.8723 170.971 22.4304C170.752 22.9886 170.619 23.3162 170.57 23.4132C170.158 24.4082 169.745 25.2454 169.333 25.9248C168.945 26.6286 168.52 27.1989 168.059 27.6357C167.598 28.0725 167.1 28.3879 166.566 28.5821C166.033 28.7762 165.426 28.8733 164.746 28.8733C164.552 28.8733 164.358 28.8611 164.164 28.8369C163.994 28.8369 163.849 28.8247 163.727 28.8005C163.557 28.7762 163.412 28.7398 163.29 28.6913V25.2332C164.213 25.2332 164.916 25.027 165.402 24.6144C165.911 24.2019 166.299 23.6802 166.566 23.0492L166.93 22.1392L160.56 6.12305Z" fill="white"/>
</g>
<defs>
<clipPath id="clip0_1_96870">
<rect width="177" height="29" fill="white" transform="translate(0.492188 0.53125)"/>
</clipPath>
</defs>
</svg>
