<svg width="181" height="30" viewBox="0 0 181 30" fill="none" xmlns="http://www.w3.org/2000/svg">
<g clip-path="url(#clip0_1_96883)">
<path d="M41.0485 12.0436C41.0485 10.1435 41.4728 8.44636 42.3213 6.95213C43.1884 5.43945 44.3598 4.26804 45.8355 3.43791C47.3298 2.58933 48.9993 2.16504 50.844 2.16504C53.0023 2.16504 54.8932 2.71846 56.5166 3.8253C58.1399 4.93215 59.2744 6.46327 59.9201 8.41869H55.4651C55.0223 7.49633 54.3951 6.80455 53.5834 6.34337C52.7902 5.88218 51.8678 5.65159 50.8163 5.65159C49.691 5.65159 48.6857 5.91908 47.8002 6.45405C46.9332 6.97058 46.2506 7.70847 45.7525 8.66773C45.2729 9.62699 45.0331 10.7523 45.0331 12.0436C45.0331 13.3164 45.2729 14.4417 45.7525 15.4194C46.2506 16.3787 46.9332 17.1258 47.8002 17.6608C48.6857 18.1773 49.691 18.4356 50.8163 18.4356C51.8678 18.4356 52.7902 18.205 53.5834 17.7438C54.3951 17.2642 55.0223 16.5632 55.4651 15.6408H59.9201C59.2744 17.6147 58.1399 19.155 56.5166 20.2619C54.9116 21.3503 53.0208 21.8945 50.844 21.8945C48.9993 21.8945 47.3298 21.4794 45.8355 20.6493C44.3598 19.8007 43.1884 18.6293 42.3213 17.135C41.4728 15.6408 41.0485 13.9437 41.0485 12.0436Z" fill="white"/>
<path d="M70.036 21.9773C68.5602 21.9773 67.232 21.6544 66.0514 21.0088C64.8707 20.3447 63.9392 19.4131 63.2566 18.214C62.5925 17.0149 62.2604 15.6314 62.2604 14.0634C62.2604 12.4953 62.6017 11.1118 63.2843 9.91267C63.9853 8.71359 64.9353 7.79122 66.1344 7.14557C67.3335 6.48146 68.6709 6.14941 70.1467 6.14941C71.6225 6.14941 72.9599 6.48146 74.159 7.14557C75.3581 7.79122 76.2989 8.71359 76.9814 9.91267C77.6824 11.1118 78.0329 12.4953 78.0329 14.0634C78.0329 15.6314 77.6732 17.0149 76.9538 18.214C76.2528 19.4131 75.2935 20.3447 74.076 21.0088C72.8769 21.6544 71.5302 21.9773 70.036 21.9773ZM70.036 18.6014C70.737 18.6014 71.3919 18.4354 72.0006 18.1033C72.6279 17.7528 73.1259 17.2363 73.4949 16.5538C73.8638 15.8712 74.0483 15.0411 74.0483 14.0634C74.0483 12.606 73.6609 11.49 72.8861 10.7152C72.1298 9.92189 71.1982 9.52527 70.0913 9.52527C68.9845 9.52527 68.0529 9.92189 67.2966 10.7152C66.5587 11.49 66.1897 12.606 66.1897 14.0634C66.1897 15.5207 66.5495 16.646 67.2689 17.4392C68.0068 18.214 68.9292 18.6014 70.036 18.6014Z" fill="white"/>
<path d="M99.9123 6.17676C101.794 6.17676 103.307 6.75785 104.45 7.92003C105.612 9.06377 106.194 10.6686 106.194 12.7348V21.7278H102.32V13.2605C102.32 12.0614 102.015 11.1483 101.406 10.5211C100.798 9.87545 99.9676 9.55262 98.9161 9.55262C97.8646 9.55262 97.0252 9.87545 96.398 10.5211C95.7893 11.1483 95.4849 12.0614 95.4849 13.2605V21.7278H91.611V13.2605C91.611 12.0614 91.3066 11.1483 90.6978 10.5211C90.0891 9.87545 89.2589 9.55262 88.2074 9.55262C87.1375 9.55262 86.2889 9.87545 85.6617 10.5211C85.0529 11.1483 84.7485 12.0614 84.7485 13.2605V21.7278H80.8746V6.39813H84.7485V8.25209C85.2466 7.60643 85.8831 7.09913 86.6578 6.73018C87.4511 6.36123 88.3181 6.17676 89.2589 6.17676C90.458 6.17676 91.5279 6.43502 92.4688 6.95155C93.4096 7.44963 94.1382 8.16907 94.6548 9.10989C95.1528 8.22442 95.8723 7.51419 96.8131 6.97922C97.7724 6.44425 98.8054 6.17676 99.9123 6.17676Z" fill="white"/>
<path d="M113.744 8.61213C114.242 7.91113 114.924 7.33004 115.791 6.86886C116.677 6.38923 117.682 6.14941 118.807 6.14941C120.117 6.14941 121.298 6.47224 122.349 7.1179C123.419 7.76355 124.259 8.68592 124.867 9.885C125.495 11.0657 125.808 12.44 125.808 14.008C125.808 15.576 125.495 16.9688 124.867 18.1863C124.259 19.3854 123.419 20.317 122.349 20.9811C121.298 21.6452 120.117 21.9773 118.807 21.9773C117.682 21.9773 116.686 21.7467 115.819 21.2855C114.97 20.8243 114.279 20.2432 113.744 19.5422V29.0334H109.87V6.39845H113.744V8.61213ZM121.851 14.008C121.851 13.0857 121.658 12.2924 121.27 11.6283C120.901 10.9458 120.403 10.4292 119.776 10.0787C119.167 9.72819 118.503 9.55294 117.784 9.55294C117.083 9.55294 116.419 9.73742 115.791 10.1064C115.183 10.4569 114.684 10.9734 114.297 11.656C113.928 12.3385 113.744 13.141 113.744 14.0634C113.744 14.9857 113.928 15.7882 114.297 16.4707C114.684 17.1533 115.183 17.679 115.791 18.048C116.419 18.3985 117.083 18.5737 117.784 18.5737C118.503 18.5737 119.167 18.3893 119.776 18.0203C120.403 17.6514 120.901 17.1256 121.27 16.4431C121.658 15.7605 121.851 14.9488 121.851 14.008Z" fill="white"/>
<path d="M127.627 14.008C127.627 12.4584 127.932 11.0841 128.54 9.885C129.167 8.68592 130.007 7.76355 131.058 7.1179C132.128 6.47224 133.318 6.14941 134.628 6.14941C135.772 6.14941 136.768 6.38 137.616 6.84118C138.483 7.30237 139.175 7.88346 139.692 8.58446V6.39845H143.593V21.7282H139.692V19.4869C139.194 20.2063 138.502 20.8059 137.616 21.2855C136.749 21.7467 135.744 21.9773 134.6 21.9773C133.309 21.9773 132.128 21.6452 131.058 20.9811C130.007 20.317 129.167 19.3854 128.54 18.1863C127.932 16.9688 127.627 15.576 127.627 14.008ZM139.692 14.0634C139.692 13.1225 139.507 12.3201 139.138 11.656C138.769 10.9734 138.271 10.4569 137.644 10.1064C137.017 9.73742 136.344 9.55294 135.624 9.55294C134.905 9.55294 134.241 9.72819 133.632 10.0787C133.023 10.4292 132.525 10.9458 132.138 11.6283C131.769 12.2924 131.584 13.0857 131.584 14.008C131.584 14.9304 131.769 15.7421 132.138 16.4431C132.525 17.1256 133.023 17.6514 133.632 18.0203C134.259 18.3893 134.923 18.5737 135.624 18.5737C136.344 18.5737 137.017 18.3985 137.644 18.048C138.271 17.679 138.769 17.1625 139.138 16.4984C139.507 15.8159 139.692 15.0042 139.692 14.0634Z" fill="white"/>
<path d="M155.872 6.17676C157.698 6.17676 159.174 6.75785 160.299 7.92003C161.425 9.06377 161.987 10.6686 161.987 12.7348V21.7278H158.113V13.2605C158.113 12.043 157.809 11.1114 157.2 10.4658C156.591 9.80166 155.761 9.46961 154.71 9.46961C153.64 9.46961 152.791 9.80166 152.164 10.4658C151.555 11.1114 151.251 12.043 151.251 13.2605V21.7278H147.377V6.39813H151.251V8.30743C151.767 7.64332 152.422 7.1268 153.215 6.75785C154.027 6.37046 154.913 6.17676 155.872 6.17676Z" fill="white"/>
<path d="M180.337 6.39844L170.846 28.9779H166.723L170.043 21.3407L163.9 6.39844H168.245L172.201 17.1071L176.214 6.39844H180.337Z" fill="white"/>
<path d="M12.0032 28.8286C6.08841 28.8286 1.3125 24.016 1.3125 18.1379C1.3125 12.2599 6.08841 7.44727 12.0032 7.44727C17.8812 7.44727 22.6939 12.2232 22.6939 18.1379C22.6571 24.016 17.8812 28.8286 12.0032 28.8286Z" fill="#0328EE"/>
<path d="M27.8052 0.615234H13.7248C12.7739 0.615234 12.0031 1.38608 12.0031 2.33697V16.4174C12.0031 17.3683 12.7739 18.1391 13.7248 18.1391H27.8052C28.7561 18.1391 29.527 17.3683 29.527 16.4174V2.33697C29.527 1.38608 28.7561 0.615234 27.8052 0.615234Z" fill="white"/>
</g>
<defs>
<clipPath id="clip0_1_96883">
<rect width="180" height="29" fill="white" transform="translate(0.5 0.53125)"/>
</clipPath>
</defs>
</svg>
