<svg width="42" height="37" viewBox="0 0 42 37" fill="none" xmlns="http://www.w3.org/2000/svg">
<g clip-path="url(#clip0_1_106674)">
<path opacity="0.4" d="M41.11 26.5997C41.11 32.3345 36.5057 36.98 30.7708 37.0005H30.7503H10.3803C4.66598 37.0005 0 32.3756 0 26.6408V26.6203C0 26.6203 0.012333 17.5226 0.028777 12.9471C0.0308325 12.0879 1.01747 11.6069 1.68962 12.1413C6.57349 16.0159 15.3073 23.0807 15.4162 23.1732C16.8757 24.3428 18.7256 25.0026 20.6167 25.0026C22.5077 25.0026 24.3577 24.3428 25.8171 23.1506C25.926 23.0786 34.4646 16.2256 39.4224 12.2873C40.0966 11.7508 41.0874 12.2318 41.0894 13.0889C41.11 17.6295 41.11 26.5997 41.11 26.5997Z" fill="#0328EE"/>
<path d="M40.0331 5.49641C38.253 2.14183 34.7504 0 30.8943 0H10.3804C6.52433 0 3.02175 2.14183 1.24169 5.49641C0.842924 6.24666 1.03203 7.18192 1.69596 7.71224L16.958 19.9198C18.0269 20.7832 19.3219 21.2128 20.6168 21.2128C20.6251 21.2128 20.6312 21.2128 20.6374 21.2128C20.6436 21.2128 20.6518 21.2128 20.6579 21.2128C21.9529 21.2128 23.2479 20.7832 24.3167 19.9198L39.5788 7.71224C40.2427 7.18192 40.4318 6.24666 40.0331 5.49641Z" fill="#0328EE"/>
</g>
<defs>
<clipPath id="clip0_1_106674">
<rect width="42" height="37" fill="white"/>
</clipPath>
</defs>
</svg>
